<svg xmlns="http://www.w3.org/2000/svg" viewBox="0 0 1128 274.36"><defs><style>.cls-1{fill:#fff;}.cls-2{fill:#ef2139;}</style></defs><g id="Layer_2" data-name="Layer 2"><g id="Layer_1-2" data-name="Layer 1"><path class="cls-1" d="M25.18,185.26v85H66.82V155.1c-13.07,1.6-29.94,5.28-38.09,17.64A22.73,22.73,0,0,0,25.18,185.26Z"/><path class="cls-1" d="M131.31,200.64a65.42,65.42,0,0,0,27.4-19.75,86,86,0,0,0,16.12-30.1,97.21,97.21,0,0,0,3.91-34.33,74.88,74.88,0,0,0-9.23-32.29,65.43,65.43,0,0,0-23.48-24q-15.34-9.41-38.2-9.4H59.93Q40.84,50.78,33,61.44t-7.83,27.9v1c13.27-2,26.74-1.73,40.13-1.71a4.39,4.39,0,0,1,4.38,3.15H102.2q11.89,0,19.56,4.85A29.82,29.82,0,0,1,133,109a37.68,37.68,0,0,1,3.6,16.43,48.1,48.1,0,0,1-3,16.91,37.43,37.43,0,0,1-9.08,13.93A27.63,27.63,0,0,1,110,163.8a55.93,55.93,0,0,1-9.07.62,63.43,63.43,0,0,1-10.81-.94,43.56,43.56,0,0,1-9.86-2.81,10.85,10.85,0,0,1-6-5.33,37,37,0,0,0-6.1,18.47,27.25,27.25,0,0,0,6.1,19.41l60.74,77h51Z"/><path class="cls-1" d="M296,104.31q24.72,0,44,11.9a88.56,88.56,0,0,1,30.21,30.37,84.93,84.93,0,0,1,11.74,41q.78,22.54-11.43,44.14a82,82,0,0,1-26.92,28.49,87.78,87.78,0,0,1-35.38,13.31,86.33,86.33,0,0,1-37.73-3.13,81.1,81.1,0,0,1-34-20.82,85.6,85.6,0,0,1-21.61-84.84,33.57,33.57,0,0,1,9.24-15,40.9,40.9,0,0,1,14.56-8.77,46.09,46.09,0,0,1,16.9-2.5,44.25,44.25,0,0,1,16.28,3.6,34.4,34.4,0,0,1,12.68,9.39,26.85,26.85,0,0,1,6.11,14.87,19.43,19.43,0,0,0-11.27-3.6,27.18,27.18,0,0,0-12.68,2.82,26.69,26.69,0,0,0-10.33,9.08q-4.23,6.1-4.23,15.18,0,15.66,6.57,26a43.25,43.25,0,0,0,16.44,15.49,45.11,45.11,0,0,0,21.29,5.17,43.41,43.41,0,0,0,37.72-21.13q6.58-10.49,6.58-26.14a50.61,50.61,0,0,0-4.38-21.61,44.05,44.05,0,0,0-11.74-15.49,41.8,41.8,0,0,0-17.07-8.46,47.55,47.55,0,0,0-20.66-.15,34.32,34.32,0,0,0-11.43-8.93,48.23,48.23,0,0,0-14.55-4.38,49.29,49.29,0,0,0-15.66.31,44.08,44.08,0,0,0-14.71,5.48,90.06,90.06,0,0,1,29.11-23.32A80.08,80.08,0,0,1,296,104.31Z"/><path class="cls-1" d="M485.71,104.31q24.72,0,44,11.9a88.5,88.5,0,0,1,30.22,30.37,84.93,84.93,0,0,1,11.74,41q.78,22.54-11.43,44.14a82,82,0,0,1-26.93,28.49,87.68,87.68,0,0,1-35.37,13.31,86.32,86.32,0,0,1-37.73-3.13,81.19,81.19,0,0,1-34-20.82,85.63,85.63,0,0,1-21.6-84.84,33.57,33.57,0,0,1,9.24-15,40.9,40.9,0,0,1,14.56-8.77,46.09,46.09,0,0,1,16.9-2.5A44.25,44.25,0,0,1,461.6,142a34.4,34.4,0,0,1,12.68,9.39,26.84,26.84,0,0,1,6.1,14.87,19.41,19.41,0,0,0-11.27-3.6,27.16,27.16,0,0,0-12.67,2.82,26.72,26.72,0,0,0-10.34,9.08q-4.22,6.1-4.22,15.18,0,15.66,6.57,26a43.18,43.18,0,0,0,16.44,15.49,45.11,45.11,0,0,0,21.29,5.17A43.41,43.41,0,0,0,523.9,215.3q6.58-10.49,6.58-26.14a50.61,50.61,0,0,0-4.39-21.61,43.82,43.82,0,0,0-11.74-15.49,41.7,41.7,0,0,0-17.06-8.46,47.55,47.55,0,0,0-20.66-.15,34.32,34.32,0,0,0-11.43-8.93,48.2,48.2,0,0,0-14.56-4.38,49.22,49.22,0,0,0-15.65.31,44.13,44.13,0,0,0-14.72,5.48,90.2,90.2,0,0,1,29.12-23.32A80.08,80.08,0,0,1,485.71,104.31Z"/><path class="cls-1" d="M677.31,157.85a24.43,24.43,0,0,0-6.89-9.55,33.31,33.31,0,0,0-19.57-7.52,20.06,20.06,0,0,0-8,1.1c-3.76,1.25-6.22,3.4-7.36,6.42s-.58,5.9,1.72,8.61a29.16,29.16,0,0,0,8.92,6.1q6.11,3,13.62,6.58t15.5,8.14a74.51,74.51,0,0,1,14.56,10.8,52.86,52.86,0,0,1,10.8,14.71q4.23,8.46,4.23,20,0,13.47-6,23.64a47.74,47.74,0,0,1-15.81,16.43A62.81,62.81,0,0,1,660.87,272a74.64,74.64,0,0,1-25,.47,70.54,70.54,0,0,1-24.57-8.61,67.39,67.39,0,0,1-20.67-18.31l25-26.93q7.82,9.4,16.44,13.47a44.5,44.5,0,0,0,16,4.54q7.37.47,12.37-2.2t6.11-7.2c.72-3-.16-6.36-2.67-10s-7.3-7.25-14.4-10.81q-10-5-19.56-10.33A93.16,93.16,0,0,1,613,184.15a56.83,56.83,0,0,1-11.9-14.72,38.52,38.52,0,0,1-4.54-19.1,41.75,41.75,0,0,1,4.7-20,44.92,44.92,0,0,1,12.52-14.72,53,53,0,0,1,17.85-8.76,68.6,68.6,0,0,1,20.66-2.51q18.15.94,27.71,8t11.89,16a25,25,0,0,1-1.56,17.38A23.75,23.75,0,0,1,677.31,157.85Z"/><path class="cls-1" d="M746.8,83a31,31,0,0,1,3.29-14.87,27.5,27.5,0,0,1,8.77-9.86,37.72,37.72,0,0,1,12.68-5.48,63.43,63.43,0,0,1,14.71-1.72v58.23h36.32a67.22,67.22,0,0,1-1.1,12.21,29.48,29.48,0,0,1-4.23,10.8,23.36,23.36,0,0,1-8.45,7.83c-3.55,2-8.14,3-13.77,3h-8.77v88.6q0,5,3.76,7.05a17,17,0,0,0,8.76,1.88,27.1,27.1,0,0,0,10-2.35,14.87,14.87,0,0,0,7.2-5.95q4.07,10.33.47,18.31a29.07,29.07,0,0,1-11.27,12.84,44.27,44.27,0,0,1-17.84,6.26,41.63,41.63,0,0,1-19.1-1.56,32.72,32.72,0,0,1-15.19-10.65q-6.25-7.67-6.26-20.82V143.13h-20V109.32h20Z"/><path class="cls-1" d="M958.13,207.63q-16.92,4.38-30.84,3.13T904.43,204a26.44,26.44,0,0,1-11.89-14.72q-3-9.23,1.72-20.82a37.63,37.63,0,0,0,22.54,8.92,147.8,147.8,0,0,0,24.73-.47q10-.93,15.19-4.38t6.41-8a14,14,0,0,0-.93-9.55,25.07,25.07,0,0,0-7.05-9.08,38.35,38.35,0,0,0-11.9-6.57,41.46,41.46,0,0,0-15.49-2.2,48.84,48.84,0,0,0-17.22,4.39,46.7,46.7,0,0,0-14.4,10.33,51.16,51.16,0,0,0-10,15.34,52.55,52.55,0,0,0-4.07,19.41,56.56,56.56,0,0,0,2,17.22,53.88,53.88,0,0,0,7,15.5,47.15,47.15,0,0,0,11.27,11.89,32.92,32.92,0,0,0,15,6.11A52.11,52.11,0,0,0,964.07,222L997,238q-12.84,19.11-30.37,27.4t-40.08,8.29q-21,0-36.78-7.35a76.77,76.77,0,0,1-26.3-19.57,81.77,81.77,0,0,1-15.65-27.71,92.68,92.68,0,0,1,1.41-63.24,82.24,82.24,0,0,1,17.21-27.39,70.1,70.1,0,0,1,29.28-19.1A106.68,106.68,0,0,1,930,103.69q19.41,0,33.5,6.57A67,67,0,0,1,986.3,127a51.89,51.89,0,0,1,11.59,22.54,47.75,47.75,0,0,1-.47,23.95,45.84,45.84,0,0,1-13,20.82Q974.72,203.56,958.13,207.63Z"/><path class="cls-1" d="M1026.06,107.44h35.06v20.67a48,48,0,0,1,13.62-17.38,32.72,32.72,0,0,1,18.32-7q13.14-.94,21.29,4.85a31.43,31.43,0,0,1,11.42,14.09,30.26,30.26,0,0,1,1.73,16.9,20.8,20.8,0,0,1-8.46,13.62,15.57,15.57,0,0,0-10.8-10.17,27.18,27.18,0,0,0-16.75.62,36.49,36.49,0,0,0-15.81,11.12q-7,8.15-8.29,21.29c-.43,5-.63,10-.63,14.87v79.36h-40.7Z"/><path class="cls-2" d="M166.76,78.66c-8.8-11-13-11.72-14.34-19.62-.09-.56-.29-1.09-.38-1.61C149,40.15,187,35.31,167.71,29.3c-19.84-6.2-42.55,24-46.27,8.26S140.44,4.51,131,.38s-25.22,26.85-31.82,31-14-31-19.83-31,4.13,26-8.68,32.22-30-22.73-37-15.7S31.16,43.76,20.22,39.62s-15.09,5-15.09,5C1.23,50.06-.07,56.39,0,62.6a50,50,0,0,0,1,8.82A45.1,45.1,0,0,0,7,89c.08.18.17.35.26.51l0,0c8.58,13.48,17.4,9.27,17.48,10,126.34-31.26,151.08,48.19,151.09,48.19C183.69,116.43,177.18,91.69,166.76,78.66Z"/></g></g></svg>